<svg xmlns="http://www.w3.org/2000/svg" viewBox="0 0 100 100" fill="none">
  <!-- Outer elegance rings -->
  <circle cx="50" cy="50" r="44" stroke="#10b981" stroke-width="2" />
  <circle cx="50" cy="50" r="38" stroke="#10b981" stroke-width="1" stroke-dasharray="2 4" />
  
  <!-- N, S, E, W markers -->
  <path d="M50 2 L52 8 L48 8 Z" fill="#10b981" />
  <path d="M50 98 L52 92 L48 92 Z" fill="#10b981" />
  <path d="M2 50 L8 48 L8 52 Z" fill="#10b981" />
  <path d="M98 50 L92 48 L92 52 Z" fill="#10b981" />
  
  <!-- Main Compass Star -->
  <path d="M50 15 L56 44 L85 50 L56 56 L50 85 L44 56 L15 50 L44 44 Z" fill="#10b981" />
  
  <!-- 3D Shading for luxury feel -->
  <path d="M50 15 L56 44 L50 50 Z" fill="#34d399" />
  <path d="M85 50 L56 56 L50 50 Z" fill="#059669" />
  <path d="M50 85 L44 56 L50 50 Z" fill="#047857" />
  <path d="M15 50 L44 44 L50 50 Z" fill="#6ee7b7" />
  
  <!-- Center Accent -->
  <circle cx="50" cy="50" r="5" fill="#ffffff" stroke="#10b981" stroke-width="1.5" />
</svg>
